<mxfile host="Electron" modified="2024-06-23T01:41:59.841Z" agent="Mozilla/5.0 (Windows NT 10.0; Win64; x64) AppleWebKit/537.36 (KHTML, like Gecko) draw.io/24.4.13 Chrome/124.0.6367.207 Electron/30.0.6 Safari/537.36" etag="UiVHlcCgO4-dYhNE4f4T" version="24.4.13" type="device">
  <diagram name="第 1 页" id="KG_1584yeeTxQOkkxCXQ">
    <mxGraphModel dx="759" dy="683" grid="1" gridSize="10" guides="1" tooltips="1" connect="1" arrows="1" fold="1" page="1" pageScale="1" pageWidth="827" pageHeight="1169" math="0" shadow="0">
      <root>
        <mxCell id="0" />
        <mxCell id="1" parent="0" />
        <mxCell id="GWCFRqCWKiFgRtvKcvF--1" value="1" style="rounded=0;whiteSpace=wrap;html=1;fillColor=#0050ef;strokeColor=#001DBC;fontColor=#ffffff;" vertex="1" parent="1">
          <mxGeometry x="20" y="40" width="60" height="20" as="geometry" />
        </mxCell>
        <mxCell id="GWCFRqCWKiFgRtvKcvF--2" value="2" style="rounded=0;whiteSpace=wrap;html=1;fillColor=#008a00;strokeColor=#005700;fontColor=#ffffff;" vertex="1" parent="1">
          <mxGeometry x="90" y="40" width="60" height="20" as="geometry" />
        </mxCell>
        <mxCell id="GWCFRqCWKiFgRtvKcvF--3" value="3" style="rounded=0;whiteSpace=wrap;html=1;fillColor=#d80073;strokeColor=#A50040;fontColor=#ffffff;" vertex="1" parent="1">
          <mxGeometry x="160" y="40" width="60" height="20" as="geometry" />
        </mxCell>
        <mxCell id="GWCFRqCWKiFgRtvKcvF--4" value="" style="rounded=0;whiteSpace=wrap;html=1;fillColor=#f8cecc;strokeColor=#b85450;" vertex="1" parent="1">
          <mxGeometry x="180" y="60" width="20" height="20" as="geometry" />
        </mxCell>
        <mxCell id="GWCFRqCWKiFgRtvKcvF--6" value="" style="rounded=0;whiteSpace=wrap;html=1;fillColor=#d5e8d4;strokeColor=#82b366;" vertex="1" parent="1">
          <mxGeometry x="20" y="60" width="20" height="20" as="geometry" />
        </mxCell>
        <mxCell id="GWCFRqCWKiFgRtvKcvF--7" value="" style="rounded=0;whiteSpace=wrap;html=1;fillColor=#d5e8d4;strokeColor=#82b366;" vertex="1" parent="1">
          <mxGeometry x="160" y="60" width="20" height="20" as="geometry" />
        </mxCell>
        <mxCell id="GWCFRqCWKiFgRtvKcvF--8" value="" style="rounded=0;whiteSpace=wrap;html=1;fillColor=#f8cecc;strokeColor=#b85450;" vertex="1" parent="1">
          <mxGeometry x="130" y="60" width="20" height="20" as="geometry" />
        </mxCell>
        <mxCell id="GWCFRqCWKiFgRtvKcvF--9" value="" style="rounded=0;whiteSpace=wrap;html=1;fillColor=#d5e8d4;strokeColor=#82b366;" vertex="1" parent="1">
          <mxGeometry x="90" y="60" width="20" height="20" as="geometry" />
        </mxCell>
        <mxCell id="GWCFRqCWKiFgRtvKcvF--10" value="" style="rounded=0;whiteSpace=wrap;html=1;fillColor=#d5e8d4;strokeColor=#82b366;" vertex="1" parent="1">
          <mxGeometry x="110" y="60" width="20" height="20" as="geometry" />
        </mxCell>
        <mxCell id="GWCFRqCWKiFgRtvKcvF--12" value="" style="rounded=0;whiteSpace=wrap;html=1;fillColor=#f8cecc;strokeColor=#b85450;" vertex="1" parent="1">
          <mxGeometry x="200" y="60" width="20" height="20" as="geometry" />
        </mxCell>
        <mxCell id="GWCFRqCWKiFgRtvKcvF--13" value="" style="rounded=0;whiteSpace=wrap;html=1;fillColor=#d5e8d4;strokeColor=#82b366;" vertex="1" parent="1">
          <mxGeometry x="40" y="60" width="20" height="20" as="geometry" />
        </mxCell>
        <mxCell id="GWCFRqCWKiFgRtvKcvF--14" value="" style="rounded=0;whiteSpace=wrap;html=1;fillColor=#d5e8d4;strokeColor=#82b366;" vertex="1" parent="1">
          <mxGeometry x="60" y="60" width="20" height="20" as="geometry" />
        </mxCell>
        <mxCell id="GWCFRqCWKiFgRtvKcvF--15" value="" style="rounded=0;whiteSpace=wrap;html=1;fillColor=#d5e8d4;strokeColor=#82b366;" vertex="1" parent="1">
          <mxGeometry x="52.5" y="100" width="20" height="20" as="geometry" />
        </mxCell>
        <mxCell id="GWCFRqCWKiFgRtvKcvF--18" value="" style="rounded=0;whiteSpace=wrap;html=1;fillColor=#d5e8d4;strokeColor=#82b366;" vertex="1" parent="1">
          <mxGeometry x="72.5" y="100" width="20" height="20" as="geometry" />
        </mxCell>
        <mxCell id="GWCFRqCWKiFgRtvKcvF--16" value="" style="rounded=0;whiteSpace=wrap;html=1;fillColor=#f8cecc;strokeColor=#b85450;" vertex="1" parent="1">
          <mxGeometry x="52.5" y="120" width="20" height="20" as="geometry" />
        </mxCell>
        <mxCell id="GWCFRqCWKiFgRtvKcvF--19" value="" style="endArrow=classic;html=1;rounded=0;" edge="1" parent="1">
          <mxGeometry width="50" height="50" relative="1" as="geometry">
            <mxPoint x="112.5" y="119.67000000000002" as="sourcePoint" />
            <mxPoint x="132.5" y="119.67000000000002" as="targetPoint" />
          </mxGeometry>
        </mxCell>
        <mxCell id="GWCFRqCWKiFgRtvKcvF--22" value="" style="ellipse;whiteSpace=wrap;html=1;aspect=fixed;fillColor=#f8cecc;strokeColor=#b85450;" vertex="1" parent="1">
          <mxGeometry x="147.5" y="100" width="40" height="40" as="geometry" />
        </mxCell>
        <mxCell id="GWCFRqCWKiFgRtvKcvF--23" value="" style="verticalLabelPosition=bottom;verticalAlign=top;html=1;shape=mxgraph.basic.pie;startAngle=0.20290190818881887;endAngle=0.8738712604630304;fillColor=#d5e8d4;strokeColor=#82b366;rotation=45;" vertex="1" parent="1">
          <mxGeometry x="147.5" y="100" width="40" height="40" as="geometry" />
        </mxCell>
        <mxCell id="GWCFRqCWKiFgRtvKcvF--24" value="1" style="rounded=0;whiteSpace=wrap;html=1;fillColor=#d5e8d4;strokeColor=#82b366;" vertex="1" parent="1">
          <mxGeometry x="52.5" y="260" width="20" height="20" as="geometry" />
        </mxCell>
        <mxCell id="GWCFRqCWKiFgRtvKcvF--25" value="1" style="rounded=0;whiteSpace=wrap;html=1;fillColor=#d5e8d4;strokeColor=#82b366;" vertex="1" parent="1">
          <mxGeometry x="72.5" y="260" width="20" height="20" as="geometry" />
        </mxCell>
        <mxCell id="GWCFRqCWKiFgRtvKcvF--26" value="2" style="rounded=0;whiteSpace=wrap;html=1;fillColor=#f8cecc;strokeColor=#b85450;" vertex="1" parent="1">
          <mxGeometry x="52.5" y="280" width="20" height="20" as="geometry" />
        </mxCell>
        <mxCell id="GWCFRqCWKiFgRtvKcvF--27" value="" style="endArrow=classic;html=1;rounded=0;" edge="1" parent="1">
          <mxGeometry width="50" height="50" relative="1" as="geometry">
            <mxPoint x="112.5" y="279.67" as="sourcePoint" />
            <mxPoint x="132.5" y="279.67" as="targetPoint" />
          </mxGeometry>
        </mxCell>
        <mxCell id="GWCFRqCWKiFgRtvKcvF--29" value="" style="ellipse;whiteSpace=wrap;html=1;aspect=fixed;fillColor=#f8cecc;strokeColor=#b85450;" vertex="1" parent="1">
          <mxGeometry x="147.5" y="260" width="40" height="40" as="geometry" />
        </mxCell>
        <mxCell id="GWCFRqCWKiFgRtvKcvF--30" value="" style="verticalLabelPosition=bottom;verticalAlign=top;html=1;shape=mxgraph.basic.pie;startAngle=0.375;endAngle=0.8738712604630304;fillColor=#d5e8d4;strokeColor=#82b366;rotation=45;" vertex="1" parent="1">
          <mxGeometry x="147.5" y="260" width="40" height="40" as="geometry" />
        </mxCell>
        <mxCell id="GWCFRqCWKiFgRtvKcvF--32" value="1" style="rounded=0;whiteSpace=wrap;html=1;fillColor=#0050ef;strokeColor=#001DBC;fontColor=#ffffff;" vertex="1" parent="1">
          <mxGeometry x="20" y="200" width="60" height="20" as="geometry" />
        </mxCell>
        <mxCell id="GWCFRqCWKiFgRtvKcvF--33" value="2" style="rounded=0;whiteSpace=wrap;html=1;fillColor=#008a00;strokeColor=#005700;fontColor=#ffffff;" vertex="1" parent="1">
          <mxGeometry x="90" y="200" width="60" height="20" as="geometry" />
        </mxCell>
        <mxCell id="GWCFRqCWKiFgRtvKcvF--34" value="3" style="rounded=0;whiteSpace=wrap;html=1;fillColor=#d80073;strokeColor=#A50040;fontColor=#ffffff;" vertex="1" parent="1">
          <mxGeometry x="160" y="200" width="60" height="20" as="geometry" />
        </mxCell>
        <mxCell id="GWCFRqCWKiFgRtvKcvF--35" value="1" style="rounded=0;whiteSpace=wrap;html=1;fillColor=#f8cecc;strokeColor=#b85450;" vertex="1" parent="1">
          <mxGeometry x="180" y="220" width="20" height="20" as="geometry" />
        </mxCell>
        <mxCell id="GWCFRqCWKiFgRtvKcvF--36" value="3" style="rounded=0;whiteSpace=wrap;html=1;fillColor=#d5e8d4;strokeColor=#82b366;" vertex="1" parent="1">
          <mxGeometry x="20" y="220" width="20" height="20" as="geometry" />
        </mxCell>
        <mxCell id="GWCFRqCWKiFgRtvKcvF--37" value="1" style="rounded=0;whiteSpace=wrap;html=1;fillColor=#d5e8d4;strokeColor=#82b366;" vertex="1" parent="1">
          <mxGeometry x="160" y="220" width="20" height="20" as="geometry" />
        </mxCell>
        <mxCell id="GWCFRqCWKiFgRtvKcvF--38" value="1" style="rounded=0;whiteSpace=wrap;html=1;fillColor=#f8cecc;strokeColor=#b85450;" vertex="1" parent="1">
          <mxGeometry x="130" y="220" width="20" height="20" as="geometry" />
        </mxCell>
        <mxCell id="GWCFRqCWKiFgRtvKcvF--39" value="2" style="rounded=0;whiteSpace=wrap;html=1;fillColor=#d5e8d4;strokeColor=#82b366;" vertex="1" parent="1">
          <mxGeometry x="90" y="220" width="20" height="20" as="geometry" />
        </mxCell>
        <mxCell id="GWCFRqCWKiFgRtvKcvF--40" value="2" style="rounded=0;whiteSpace=wrap;html=1;fillColor=#d5e8d4;strokeColor=#82b366;" vertex="1" parent="1">
          <mxGeometry x="110" y="220" width="20" height="20" as="geometry" />
        </mxCell>
        <mxCell id="GWCFRqCWKiFgRtvKcvF--41" value="1" style="rounded=0;whiteSpace=wrap;html=1;fillColor=#f8cecc;strokeColor=#b85450;" vertex="1" parent="1">
          <mxGeometry x="200" y="220" width="20" height="20" as="geometry" />
        </mxCell>
        <mxCell id="GWCFRqCWKiFgRtvKcvF--42" value="2" style="rounded=0;whiteSpace=wrap;html=1;fillColor=#d5e8d4;strokeColor=#82b366;" vertex="1" parent="1">
          <mxGeometry x="40" y="220" width="20" height="20" as="geometry" />
        </mxCell>
        <mxCell id="GWCFRqCWKiFgRtvKcvF--43" value="2" style="rounded=0;whiteSpace=wrap;html=1;fillColor=#d5e8d4;strokeColor=#82b366;" vertex="1" parent="1">
          <mxGeometry x="60" y="220" width="20" height="20" as="geometry" />
        </mxCell>
        <mxCell id="GWCFRqCWKiFgRtvKcvF--50" value="Uniform Leveled Scaling" style="text;html=1;align=left;verticalAlign=middle;whiteSpace=wrap;rounded=0;" vertex="1" parent="1">
          <mxGeometry x="20" y="10" width="210" height="20" as="geometry" />
        </mxCell>
        <mxCell id="GWCFRqCWKiFgRtvKcvF--51" value="Rec. Freq. Weighted Level Scaling" style="text;html=1;align=left;verticalAlign=middle;whiteSpace=wrap;rounded=0;fillColor=none;" vertex="1" parent="1">
          <mxGeometry x="20" y="170" width="200" height="20" as="geometry" />
        </mxCell>
        <mxCell id="GWCFRqCWKiFgRtvKcvF--56" value="Centroid-based Heuristics" style="text;html=1;align=left;verticalAlign=middle;whiteSpace=wrap;rounded=0;" vertex="1" parent="1">
          <mxGeometry x="260" y="10" width="210" height="20" as="geometry" />
        </mxCell>
        <mxCell id="GWCFRqCWKiFgRtvKcvF--57" value="" style="rounded=0;whiteSpace=wrap;html=1;gradientColor=#FF0080;gradientDirection=east;fillColor=#3333FF;strokeColor=none;" vertex="1" parent="1">
          <mxGeometry x="260" y="40" width="200" height="20" as="geometry" />
        </mxCell>
        <mxCell id="GWCFRqCWKiFgRtvKcvF--58" value="" style="rounded=0;whiteSpace=wrap;html=1;fillColor=#f8cecc;strokeColor=#b85450;" vertex="1" parent="1">
          <mxGeometry x="260" y="60" width="10" height="20" as="geometry" />
        </mxCell>
        <mxCell id="GWCFRqCWKiFgRtvKcvF--59" value="" style="rounded=0;whiteSpace=wrap;html=1;fillColor=#f8cecc;strokeColor=#b85450;" vertex="1" parent="1">
          <mxGeometry x="270" y="60" width="10" height="20" as="geometry" />
        </mxCell>
        <mxCell id="GWCFRqCWKiFgRtvKcvF--60" value="" style="rounded=0;whiteSpace=wrap;html=1;fillColor=#f8cecc;strokeColor=#b85450;" vertex="1" parent="1">
          <mxGeometry x="420" y="60" width="40" height="20" as="geometry" />
        </mxCell>
        <mxCell id="GWCFRqCWKiFgRtvKcvF--61" value="" style="rounded=0;whiteSpace=wrap;html=1;fillColor=#d5e8d4;strokeColor=#82b366;" vertex="1" parent="1">
          <mxGeometry x="280" y="60" width="10" height="20" as="geometry" />
        </mxCell>
        <mxCell id="GWCFRqCWKiFgRtvKcvF--62" value="" style="rounded=0;whiteSpace=wrap;html=1;fillColor=#f8cecc;strokeColor=#b85450;" vertex="1" parent="1">
          <mxGeometry x="290" y="60" width="20" height="20" as="geometry" />
        </mxCell>
        <mxCell id="GWCFRqCWKiFgRtvKcvF--63" value="" style="rounded=0;whiteSpace=wrap;html=1;fillColor=#f8cecc;strokeColor=#b85450;" vertex="1" parent="1">
          <mxGeometry x="310" y="60" width="20" height="20" as="geometry" />
        </mxCell>
        <mxCell id="GWCFRqCWKiFgRtvKcvF--64" value="" style="rounded=0;whiteSpace=wrap;html=1;fillColor=#d5e8d4;strokeColor=#82b366;" vertex="1" parent="1">
          <mxGeometry x="330" y="60" width="20" height="20" as="geometry" />
        </mxCell>
        <mxCell id="GWCFRqCWKiFgRtvKcvF--65" value="" style="rounded=0;whiteSpace=wrap;html=1;fillColor=#f8cecc;strokeColor=#b85450;" vertex="1" parent="1">
          <mxGeometry x="350" y="60" width="30" height="20" as="geometry" />
        </mxCell>
        <mxCell id="GWCFRqCWKiFgRtvKcvF--66" value="" style="rounded=0;whiteSpace=wrap;html=1;fillColor=#d5e8d4;strokeColor=#82b366;" vertex="1" parent="1">
          <mxGeometry x="380" y="60" width="40" height="20" as="geometry" />
        </mxCell>
        <mxCell id="GWCFRqCWKiFgRtvKcvF--69" value="" style="rounded=0;whiteSpace=wrap;html=1;fillColor=#f5f5f5;fontColor=#333333;strokeColor=#666666;" vertex="1" parent="1">
          <mxGeometry x="325" y="130" width="10" height="20" as="geometry" />
        </mxCell>
        <mxCell id="GWCFRqCWKiFgRtvKcvF--70" value="" style="rounded=0;whiteSpace=wrap;html=1;fillColor=#f5f5f5;fontColor=#333333;strokeColor=#666666;" vertex="1" parent="1">
          <mxGeometry x="335" y="130" width="20" height="20" as="geometry" />
        </mxCell>
        <mxCell id="GWCFRqCWKiFgRtvKcvF--71" value="" style="rounded=0;whiteSpace=wrap;html=1;fillColor=#f5f5f5;fontColor=#333333;strokeColor=#666666;" vertex="1" parent="1">
          <mxGeometry x="355" y="130" width="40" height="20" as="geometry" />
        </mxCell>
        <mxCell id="GWCFRqCWKiFgRtvKcvF--72" value="divides" style="text;html=1;align=center;verticalAlign=middle;whiteSpace=wrap;rounded=0;fontStyle=3;fontFamily=Times New Roman;fontSize=16;" vertex="1" parent="1">
          <mxGeometry x="340" y="150" width="40" height="30" as="geometry" />
        </mxCell>
        <mxCell id="GWCFRqCWKiFgRtvKcvF--73" value="" style="rounded=0;whiteSpace=wrap;html=1;fillColor=#f5f5f5;fontColor=#333333;strokeColor=#666666;" vertex="1" parent="1">
          <mxGeometry x="260" y="180" width="10" height="20" as="geometry" />
        </mxCell>
        <mxCell id="GWCFRqCWKiFgRtvKcvF--74" value="" style="rounded=0;whiteSpace=wrap;html=1;fillColor=#f5f5f5;fontColor=#333333;strokeColor=#666666;" vertex="1" parent="1">
          <mxGeometry x="270" y="180" width="10" height="20" as="geometry" />
        </mxCell>
        <mxCell id="GWCFRqCWKiFgRtvKcvF--75" value="" style="rounded=0;whiteSpace=wrap;html=1;fillColor=#f5f5f5;fontColor=#333333;strokeColor=#666666;" vertex="1" parent="1">
          <mxGeometry x="420" y="180" width="40" height="20" as="geometry" />
        </mxCell>
        <mxCell id="GWCFRqCWKiFgRtvKcvF--76" value="" style="rounded=0;whiteSpace=wrap;html=1;fillColor=#f5f5f5;fontColor=#333333;strokeColor=#666666;" vertex="1" parent="1">
          <mxGeometry x="280" y="180" width="10" height="20" as="geometry" />
        </mxCell>
        <mxCell id="GWCFRqCWKiFgRtvKcvF--77" value="" style="rounded=0;whiteSpace=wrap;html=1;fillColor=#f5f5f5;fontColor=#333333;strokeColor=#666666;" vertex="1" parent="1">
          <mxGeometry x="290" y="180" width="20" height="20" as="geometry" />
        </mxCell>
        <mxCell id="GWCFRqCWKiFgRtvKcvF--78" value="" style="rounded=0;whiteSpace=wrap;html=1;fillColor=#f5f5f5;fontColor=#333333;strokeColor=#666666;" vertex="1" parent="1">
          <mxGeometry x="310" y="180" width="20" height="20" as="geometry" />
        </mxCell>
        <mxCell id="GWCFRqCWKiFgRtvKcvF--79" value="" style="rounded=0;whiteSpace=wrap;html=1;fillColor=#f5f5f5;fontColor=#333333;strokeColor=#666666;" vertex="1" parent="1">
          <mxGeometry x="330" y="180" width="20" height="20" as="geometry" />
        </mxCell>
        <mxCell id="GWCFRqCWKiFgRtvKcvF--80" value="" style="rounded=0;whiteSpace=wrap;html=1;fillColor=#f5f5f5;fontColor=#333333;strokeColor=#666666;" vertex="1" parent="1">
          <mxGeometry x="350" y="180" width="30" height="20" as="geometry" />
        </mxCell>
        <mxCell id="GWCFRqCWKiFgRtvKcvF--81" value="" style="rounded=0;whiteSpace=wrap;html=1;fillColor=#f5f5f5;fontColor=#333333;strokeColor=#666666;" vertex="1" parent="1">
          <mxGeometry x="380" y="180" width="40" height="20" as="geometry" />
        </mxCell>
        <mxCell id="GWCFRqCWKiFgRtvKcvF--83" value="" style="endArrow=classic;html=1;rounded=0;exitX=0.5;exitY=1;exitDx=0;exitDy=0;entryX=0.5;entryY=0;entryDx=0;entryDy=0;" edge="1" parent="1" source="GWCFRqCWKiFgRtvKcvF--61" target="GWCFRqCWKiFgRtvKcvF--69">
          <mxGeometry width="50" height="50" relative="1" as="geometry">
            <mxPoint x="300" y="140" as="sourcePoint" />
            <mxPoint x="350" y="90" as="targetPoint" />
          </mxGeometry>
        </mxCell>
        <mxCell id="GWCFRqCWKiFgRtvKcvF--84" value="" style="endArrow=classic;html=1;rounded=0;exitX=0.5;exitY=1;exitDx=0;exitDy=0;entryX=0.5;entryY=0;entryDx=0;entryDy=0;" edge="1" parent="1" source="GWCFRqCWKiFgRtvKcvF--64" target="GWCFRqCWKiFgRtvKcvF--70">
          <mxGeometry width="50" height="50" relative="1" as="geometry">
            <mxPoint x="380" y="150" as="sourcePoint" />
            <mxPoint x="430" y="100" as="targetPoint" />
          </mxGeometry>
        </mxCell>
        <mxCell id="GWCFRqCWKiFgRtvKcvF--85" value="" style="endArrow=classic;html=1;rounded=0;exitX=0.5;exitY=1;exitDx=0;exitDy=0;entryX=0.5;entryY=0;entryDx=0;entryDy=0;" edge="1" parent="1" source="GWCFRqCWKiFgRtvKcvF--66" target="GWCFRqCWKiFgRtvKcvF--71">
          <mxGeometry width="50" height="50" relative="1" as="geometry">
            <mxPoint x="450" y="160" as="sourcePoint" />
            <mxPoint x="500" y="110" as="targetPoint" />
          </mxGeometry>
        </mxCell>
        <mxCell id="GWCFRqCWKiFgRtvKcvF--86" value="" style="endArrow=classic;html=1;rounded=0;" edge="1" parent="1">
          <mxGeometry width="50" height="50" relative="1" as="geometry">
            <mxPoint x="329.6" y="175" as="sourcePoint" />
            <mxPoint x="329.6" y="155" as="targetPoint" />
          </mxGeometry>
        </mxCell>
        <mxCell id="GWCFRqCWKiFgRtvKcvF--87" value="" style="endArrow=classic;html=1;rounded=0;" edge="1" parent="1">
          <mxGeometry width="50" height="50" relative="1" as="geometry">
            <mxPoint x="390" y="155" as="sourcePoint" />
            <mxPoint x="390" y="175" as="targetPoint" />
          </mxGeometry>
        </mxCell>
        <mxCell id="GWCFRqCWKiFgRtvKcvF--88" value="" style="endArrow=none;dashed=1;html=1;rounded=0;" edge="1" parent="1">
          <mxGeometry width="50" height="50" relative="1" as="geometry">
            <mxPoint x="240" y="320" as="sourcePoint" />
            <mxPoint x="240" as="targetPoint" />
          </mxGeometry>
        </mxCell>
        <mxCell id="GWCFRqCWKiFgRtvKcvF--89" value="" style="endArrow=none;dashed=1;html=1;rounded=0;" edge="1" parent="1">
          <mxGeometry width="50" height="50" relative="1" as="geometry">
            <mxPoint y="160" as="sourcePoint" />
            <mxPoint x="240" y="160" as="targetPoint" />
          </mxGeometry>
        </mxCell>
      </root>
    </mxGraphModel>
  </diagram>
</mxfile>
